<?xml version="1.0" encoding="UTF-8"?><svg id="a" xmlns="http://www.w3.org/2000/svg" xmlns:xlink="http://www.w3.org/1999/xlink" viewBox="0 0 71.08 46.16"><defs><clipPath id="b"><rect y="0" width="71.04" height="46.16" fill="none" stroke-width="0"/></clipPath></defs><g clip-path="url(#b)"><rect y="0" width="71.04" height="46.16" fill="#fff" stroke-width="0"/></g><rect x=".8" y=".8" width="69.48" height="44.55" fill="#003272" stroke-width="0"/><path d="M36,10.77l-11.15.03c-2.72.12-5.08,1.78-6.57,4.1-2.13,2.82-3.09,6.13-4.2,9.37-.93,3.21-.93,7.5,1.75,9.83.79.64,1.7,1.08,2.71,1.14l42.39.03-1.6,6.01H15.62c-4.12-.41-8.5-2.54-10.1-6.6-2.31-6.89-.26-14.3,2.84-20.23,3.09-6.17,9.01-9.83,16.32-9.73h13.1l-1.78,6.04" fill="#fff" stroke-width="0"/><polyline points="34.24 17.21 26.77 17.21 25.63 21.29 32.55 21.3 31.76 24.65 24.75 24.65 23.53 29.2 31.21 29.21 30.39 32.48 18.24 32.48 23.21 14.03 35.15 14.03 34.24 17.21" fill="#fff" stroke-width="0"/><path d="M45.39,27.98c-.55,1.61-1.43,3.39-3.09,4.18-2.13,1.04-5.34.87-7.68.29-.76-.29-1.63-.73-2.07-1.55-.5-1.16-.73-2.74-.3-4.06h4.38c-.17.56-.17,1.29.12,1.78.49.73,1.4.82,2.19.7,1.02-.15,1.67-1.19,1.93-2.1,1.05-3.3,2.04-6.6,2.77-10.01h-7.29s.87-3.19.87-3.19h11.91l-3.74,13.95" fill="#fff" stroke-width="0"/><path d="M59.24,25.7c.09.18.14.16.2.05l3.24-11.72h3.74s-4.44,16.55-4.44,16.55l-.52,1.89h-5.26l-2.75-10.92c-.06-.18-.19-.28-.28-.02l-3.17,10.94h-4.03l5.29-18.45h5.2l2.77,11.67" fill="#fff" stroke-width="0"/><path d="M65.19,32.49c1.26,0,2.27-1.01,2.27-2.27s-1.02-2.27-2.27-2.27-2.27,1.02-2.27,2.27,1.02,2.27,2.27,2.27" fill="#fff" stroke-width="0"/><path d="M65.19,32.07c1.02,0,1.85-.83,1.85-1.85s-.83-1.85-1.85-1.85-1.85.83-1.85,1.85.83,1.85,1.85,1.85" fill="#203c73" stroke-width="0"/><path d="M64.66,30.05h.7c.27,0,.42-.13.42-.38,0-.31-.2-.37-.42-.37h-.69v.76M64.23,28.95h1.16c.53,0,.8.24.8.66,0,.46-.32.58-.4.61h0c.15.03.36.14.36.52,0,.28.04.55.14.65h-.46c-.06-.11-.06-.24-.06-.36,0-.44-.09-.64-.48-.64h-.62v1h-.43v-2.43Z" fill="#fff" stroke-width="0"/></svg>