<?xml version="1.0" encoding="UTF-8"?><svg id="a" xmlns="http://www.w3.org/2000/svg" viewBox="0 0 1080 204.9"><path d="M740.3,90.51l1-.17c.82,1.6,1.68,3.18,2.46,4.8,13.92,28.74,27.86,57.48,41.7,86.26,1.4,2.91,2.58,5,6.56,4.9,14.05-.36,28.11-.36,42.17-.28,3.51.02,4.45-1.18,4.38-4.58-.25-11.2-.21-22.4-.23-33.61-.04-28.11-.03-56.22-.11-84.33-.02-5.66,1.43-11.18,7.82-10.88,8.59.41,8.85-4.09,8.2-10.22-.15-1.41-.19-2.87,0-4.27.56-4.05-1.13-5.15-5.09-5.09-13.85.22-27.71.09-41.56.09-14.7,0-14.47,0-14.71,14.5-.08,4.82,1.48,5.71,5.87,5.59,9.33-.25,11.51,2.1,11.5,11.43-.03,18.13-.15,36.26-.23,54.39,0,1.45,0,2.91,0,4.36-1.66-.91-2.26-1.9-2.78-2.94-13.81-27.43-27.69-54.81-41.31-82.33-1.92-3.87-4.15-5.16-8.4-5.1-16.09.25-32.19.1-48.29.1-14.51,0-14.37,0-14.51,14.39-.04,4.12.47,5.9,5.38,6.04,10.68.3,11.85,1.99,11.87,13.05.03,12.22.02,24.44,0,36.67-.02,17.31-.03,34.63-.09,51.94-.02,4.54-.9,8.24-6.36,9.66-3.42.89-8.36-1.58-10,2.14-1.43,3.25-.37,7.61-.4,11.47,0,1.02.13,2.06-.02,3.05-.6,3.89,1.19,4.81,4.83,4.76,14.26-.18,28.52-.07,42.79-.07,14.19,0,13.92,0,14.4-14.32.17-5.25-.87-7.08-6.48-6.77-7.61.42-10.25-2.05-10.29-8.79-.15-21.94-.06-43.89-.06-65.83ZM256.8,106.79c2.47-1.26,3.94-1.94,5.34-2.74,14.49-8.27,18.36-21.62,16.98-37-1.34-14.99-9.09-25.28-23.84-29.89-6.89-2.15-13.92-2.9-21.06-2.9-27.7-.03-55.4-.01-83.09-.01-12.29,0-12,0-12.41,12.47-.19,5.67.98,7.95,7.2,7.53,7.22-.49,10.14,2.17,10.16,8.28.11,31.76.06,63.53.05,95.29,0,4.23-1.99,6.65-6.25,7.73-3.41.87-8.29-1.2-9.98,2.35-1.42,3-.34,7.19-.35,10.85,0,1.22.13,2.46-.03,3.66-.53,3.95.93,5.14,5.03,5.09,19.75-.23,39.51-.11,59.26-.11,13.76,0,13.52,0,13.88-13.99.13-5.23-1-7.36-6.68-7.58-8.3-.32-9.53-2.25-9.6-10.71-.07-8.96-.23-17.91-.26-26.86-.05-11.91-.01-11.91,12.01-10.62,8.97.97,12.52,4.48,13.88,13.3.85,5.47.86,10.95.83,16.44-.04,8.38.5,16.66,3.75,24.55,4.2,10.21,12.04,15.68,22.51,15.67,9.36,0,18.73-.11,28.09.05,3,.05,4.54-.49,4.35-3.94-.25-4.67-.12-9.36-.04-14.05.04-2.26-.17-3.99-3.09-4.07-6.97-.18-8.78-4.7-8.76-10.71.03-7.33-.14-14.66.04-21.99.3-12.42-3.74-21.97-17.91-26.12ZM429.2,33.88h-37c-14.67,0-14.46,0-14.64,14.53-.06,4.7,1.26,5.75,5.82,5.46,8.25-.52,11.11,1.24,11.27,7.66.83,32.16.62,64.34.15,96.51-.06,4.06-2.63,6.05-6.37,7.11-3.24.92-7.95-1.14-9.56,2.13-1.46,2.99-.51,7.17-.61,10.82-.04,1.63.12,3.28-.1,4.88-.43,3.13,1.09,3.71,3.84,3.68,28.92-.35,57.88.97,86.77-.68,31.81-1.82,53.65-18.63,61.83-46.61,4.89-16.73,5.3-33.79,2.47-50.85-5.42-32.58-25.25-50.71-57.79-53.79-16.28-1.54-32.57-.4-46.09-.86ZM542.2,104.21c0,23.46,2.99,40.75,13.36,55.99,14.05,20.63,34.56,28.65,58.64,29.54,31.35,1.16,57.24-14.42,69.12-42.58,6.6-15.66,7.41-32.21,5.82-49.14-3.82-40.64-30.72-66.37-71.41-67.17-25.06-.49-46.53,7.4-61.59,28.49-10.71,15-14.11,32.2-13.95,44.88ZM908.02,3.12v198.65c57.3-32.48,112.74-66.45,169.23-100.08-56.61-33.25-112.2-66.64-169.23-98.57ZM68.89,34.25c0,.11,0,.23,0,.34-20.37,0-40.75.07-61.12-.06-3.4-.02-5.09.32-5.02,4.48.26,15.88.18,31.78.05,47.66-.03,3.16.87,4.36,4.13,4.16,4.26-.25,8.57-.26,12.83,0,3.76.23,5.47-.55,5.31-4.92-.24-6.51.65-13.02,3.01-19.2,2.26-5.95,6.38-9.73,12.75-11.04,3.9-.8,5.79-.34,5.77,4.56-.12,30.35.11,60.7.17,91.05,0,2.43-.39,4.86-.72,7.28-.57,4.23-3.27,6.33-7.28,7.06q-10.15,1.85-10.15,12.1c0,1.43.18,2.88-.03,4.27-.7,4.52.95,5.87,5.62,5.78,21.18-.42,42.37-.46,63.56-.59,11.66-.07,11.66-.04,11.66-11.96,0-1.63-.17-3.28.03-4.88.43-3.48-1.07-4.45-4.44-4.71-12.35-.93-13.73-2.5-13.75-14.88-.05-29.94.16-59.89-.18-89.83-.07-6.14,2.71-6.31,6.93-5.15,9.59,2.63,12.17,10.47,13.76,19,.94,5.02-1.58,12.2,2.59,14.63,4.15,2.42,10.72.53,16.2.92,3.61.26,4.42-1.07,4.38-4.47-.17-15.28-.32-30.56.07-45.83.13-5.13-1.63-5.94-6.21-5.88-19.96.24-39.93.1-59.9.1ZM330.88,187.05v-.27c8.15,0,16.3.06,24.44-.02,4.86-.05,11.27,1.47,14.18-1,3.41-2.89.58-9.54,1.23-14.51.54-4.17-.73-5.55-5.18-5.65-10-.22-11.47-2.07-11.48-12.15-.02-18.94,0-37.89.01-56.83,0-11-.04-22,.03-33,.03-4.81,1.12-8.93,6.93-9.81,2.93-.44,7.01,1.55,8.52-1.22,1.39-2.54.52-6.33.62-9.57.03-1.02-.12-2.06.03-3.05.71-4.64-.86-6.28-5.88-6.2-19.15.31-38.3.13-57.46.13-15.74,0-15.64,0-15.28,15.62.08,3.39.82,4.44,4.46,4.36,11.41-.25,12.9,1.48,12.9,13.1,0,25.06,0,50.11,0,75.17,0,5.29.09,10.58-.03,15.87-.08,3.35-1.61,6.78-5.08,6.56-11.73-.75-12.81,6.17-11.82,15.06.06.56-.32,1.16-.42,1.75-.67,3.97.4,5.9,5.04,5.77,11.4-.3,22.82-.1,34.23-.1Z" fill="#fefefe" stroke-width="0"/><path d="M740.3,90.51c0,21.94-.09,43.89.06,65.83.05,6.74,2.69,9.21,10.29,8.79,5.61-.31,6.65,1.53,6.48,6.77-.47,14.31-.21,14.32-14.4,14.32-14.26,0-28.53-.1-42.79.07-3.65.04-5.44-.87-4.83-4.76.15-.99.02-2.03.02-3.05.03-3.87-1.04-8.22.4-11.47,1.64-3.72,6.58-1.24,10-2.14,5.46-1.43,6.35-5.12,6.36-9.66.06-17.31.07-34.63.09-51.94.01-12.22.02-24.44,0-36.67-.02-11.06-1.19-12.75-11.87-13.05-4.91-.14-5.42-1.92-5.38-6.04.14-14.39,0-14.39,14.51-14.39,16.1,0,32.19.15,48.29-.1,4.25-.07,6.48,1.22,8.4,5.1,13.62,27.52,27.51,54.91,41.31,82.33.52,1.04,1.12,2.03,2.78,2.94,0-1.45,0-2.91,0-4.36.08-18.13.2-36.26.23-54.39.02-9.33-2.16-11.69-11.5-11.43-4.38.12-5.95-.77-5.87-5.59.25-14.49,0-14.5,14.71-14.5,13.85,0,27.71.14,41.56-.09,3.96-.06,5.66,1.04,5.09,5.09-.2,1.4-.16,2.86,0,4.27.64,6.13.39,10.63-8.2,10.22-6.38-.3-7.83,5.22-7.82,10.88.08,28.11.07,56.22.11,84.33.02,11.2-.02,22.41.23,33.61.07,3.4-.87,4.61-4.38,4.58-14.06-.08-28.12-.08-42.17.28-3.98.1-5.16-1.98-6.56-4.9-13.84-28.78-27.78-57.52-41.7-86.26-.78-1.62-1.64-3.2-2.46-4.8l-1,.17Z" fill="#027b4b" stroke-width="0"/><path d="M256.8,106.79c14.17,4.15,18.21,13.7,17.91,26.12-.17,7.33,0,14.66-.04,21.99-.03,6.01,1.79,10.52,8.76,10.71,2.93.08,3.13,1.81,3.09,4.07-.08,4.68-.21,9.38.04,14.05.19,3.45-1.35,3.99-4.35,3.94-9.36-.16-18.72-.06-28.09-.05-10.47,0-18.31-5.46-22.51-15.67-3.25-7.88-3.79-16.17-3.75-24.55.02-5.5.01-10.97-.83-16.44-1.36-8.82-4.91-12.34-13.88-13.3-12.02-1.29-12.05-1.29-12.01,10.62.04,8.96.19,17.91.26,26.86.06,8.46,1.3,10.39,9.6,10.71,5.69.22,6.82,2.36,6.68,7.58-.36,13.98-.12,13.99-13.88,13.99-19.76,0-39.51-.13-59.26.11-4.1.05-5.56-1.15-5.03-5.09.16-1.2.02-2.44.03-3.66.02-3.66-1.07-7.86.35-10.85,1.69-3.55,6.57-1.49,9.98-2.35,4.26-1.08,6.25-3.5,6.25-7.73,0-31.76.06-63.53-.05-95.29-.02-6.11-2.94-8.77-10.16-8.28-6.22.42-7.39-1.86-7.2-7.53.41-12.46.12-12.47,12.41-12.47,27.7,0,55.4-.02,83.09.01,7.14,0,14.17.75,21.06,2.9,14.75,4.61,22.5,14.9,23.84,29.89,1.38,15.38-2.49,28.73-16.98,37-1.4.8-2.87,1.48-5.34,2.74ZM201.71,74.95c0,1.42-.25,19.35,1.48,20.19,5.69,2.78,13.5,1.11,20.22-.87,3.86-1.14,7.36-3.33,8.29-7.39,4.06-17.82,1.94-32.17-19.14-32.09-2.23,0-4.48-.06-6.68-.33-3.18-.39-4.33.81-4.21,4.03.2,5.48.06,10.97.05,16.46Z" fill="#027b4b" stroke-width="0"/><path d="M429.2,33.88c13.51.46,29.81-.68,46.09.86,32.54,3.08,52.37,21.2,57.79,53.79,2.84,17.05,2.43,34.11-2.47,50.85-8.18,27.98-30.02,44.8-61.83,46.61-28.89,1.65-57.85.33-86.77.68-2.75.03-4.27-.55-3.84-3.68.22-1.6.06-3.25.1-4.88.1-3.66-.86-7.83.61-10.82,1.6-3.28,6.31-1.22,9.56-2.13,3.74-1.06,6.31-3.05,6.37-7.11.47-32.17.68-64.34-.15-96.51-.17-6.42-3.03-8.18-11.27-7.66-4.56.29-5.88-.76-5.82-5.46.19-14.52-.03-14.53,14.64-14.53h37ZM439.77,108.25c0,16.48.14,32.96-.09,49.43-.06,4.17.92,5.58,5.33,5.49,18.79-.35,31.89-10.57,36.55-29.78,4.24-17.48,4.08-35.16-.24-52.6-4.59-18.51-16.6-27.32-35.83-27.64-4.49-.07-5.92.95-5.83,5.66.3,16.47.12,32.95.12,49.43Z" fill="#027b4b" stroke-width="0"/><path d="M542.2,104.21c-.16-12.67,3.24-29.88,13.95-44.88,15.06-21.09,36.53-28.98,61.59-28.49,40.68.79,67.59,26.53,71.41,67.17,1.59,16.93.78,33.48-5.82,49.14-11.87,28.17-37.76,43.75-69.12,42.58-24.08-.89-44.6-8.91-58.64-29.54-10.37-15.23-13.37-32.52-13.36-55.99ZM641.69,109.14c-.49-11.67-.42-25.78-5.91-39.06-3.83-9.28-11.03-14.37-19.96-14.32-9.16.05-16.1,4.94-19.84,14.45-5.79,14.72-6.16,30.21-5.69,45.7.37,12.39.84,24.86,6.77,36.27,6.49,12.47,21.69,16.44,31.88,8.06,5.21-4.28,7.75-10.37,9.51-16.7,2.92-10.49,3.2-21.27,3.24-34.41Z" fill="#027b4b" stroke-width="0"/><path d="M908.02,3.12c57.04,31.93,112.62,65.32,169.23,98.57-56.5,33.63-111.93,67.61-169.23,100.08V3.12ZM910.36,102.08c27.52,16.49,54.19,32.48,81.75,48.99,0-32.29-.05-62.99.05-93.68.01-4.61-1.84-3.33-4.26-1.89-13.24,7.89-26.54,15.69-39.75,23.63-12.36,7.42-24.64,14.96-37.79,22.95Z" fill="#027b4b" stroke-width="0"/><path d="M128.79,34.15c4.58-.05,6.34.75,6.21,5.88-.39,15.27-.23,30.55-.07,45.83.04,3.4-.77,4.72-4.38,4.47-5.48-.39-12.04,1.5-16.2-.92-4.17-2.43-1.65-9.61-2.59-14.63-1.59-8.53-4.18-16.37-13.76-19-4.22-1.16-7-.99-6.93,5.15.33,29.94.12,59.89.18,89.83.02,12.38,1.41,13.94,13.75,14.88,3.38.26,4.88,1.23,4.44,4.71-.2,1.6-.03,3.25-.03,4.88,0,11.93,0,11.89-11.66,11.96-21.19.13-42.38.17-63.56.59-4.68.09-6.32-1.26-5.62-5.78.22-1.39.03-2.85.03-4.27q0-10.24,10.15-12.1c4.01-.73,6.71-2.83,7.28-7.06.33-2.42.72-4.85.72-7.28-.06-30.35-.29-60.7-.17-91.05.02-4.91-1.87-5.36-5.77-4.56-6.37,1.3-10.49,5.09-12.75,11.04-2.35,6.18-3.24,12.69-3.01,19.2.16,4.37-1.55,5.16-5.31,4.92-4.26-.26-8.56-.25-12.83,0-3.26.19-4.16-1.01-4.13-4.16.13-15.89.22-31.78-.05-47.66-.07-4.16,1.62-4.88,5.01-4.86,20.37.13,116.44.04,121.02,0Z" fill="#027b4b" stroke-width="0"/><path d="M330.88,187.05c-11.41,0-22.83-.2-34.23.1-4.64.12-5.71-1.81-5.04-5.77.1-.59-.01-1.21-.07-1.77-.99-8.89.59-15.8,12.32-15.05,3.47.22,5-3.21,5.08-6.56.13-5.29.03-10.58.03-15.87,0-25.06,0-50.11,0-75.17,0-11.62-1.49-13.35-12.9-13.1-3.64.08-4.39-.97-4.46-4.36-.36-15.63-.46-15.62,15.28-15.62,19.15,0,38.31.18,57.46-.13,5.01-.08,6.59,1.56,5.88,6.2-.15,1,0,2.03-.03,3.05-.11,3.24.77,7.03-.62,9.57-1.52,2.77-5.6.78-8.52,1.22-5.81.88-6.9,5.01-6.93,9.81-.07,11-.03,22-.03,33,0,18.94-.03,37.89-.01,56.83,0,10.08,1.48,11.93,11.48,12.15,4.45.1,5.72,1.48,5.18,5.65-.64,4.96,2.18,11.61-1.23,14.51-2.92,2.48-38.63,1.21-38.63,1.3Z" fill="#027b4b" stroke-width="0"/></svg>