<?xml version="1.0" encoding="utf-8"?>
<!-- Generator: Adobe Illustrator 28.0.0, SVG Export Plug-In . SVG Version: 6.00 Build 0)  -->
<svg version="1.1" id="Layer_1" xmlns="http://www.w3.org/2000/svg" xmlns:xlink="http://www.w3.org/1999/xlink" x="0px" y="0px"
	 viewBox="0 0 1837.3 429" style="enable-background:new 0 0 1837.3 429;" xml:space="preserve">
<style type="text/css">
	.st0{fill:#030303;}
	.st1{fill:#F8F8F8;}
	.st2{fill:#FE6407;}
</style>
<g>
	<path class="st0" d="M921,0.5c281,0,562,0.1,843-0.2c14.3,0,27.7,1.5,39.9,9c23.5,14.4,33.5,35.9,33.4,62.9
		c-0.2,55.5-0.1,111-0.1,166.5c0,39.7,0.1,79.3,0,119c-0.1,17.4-4,33.5-16.2,47.2c-15.1,16.9-33.7,24-56.3,24
		c-210.4-0.2-420.8-0.1-631.3-0.1c-352.3,0-704.5,0-1056.8-0.2c-11.1,0-22.8-0.5-33-4.2c-28.6-10.3-43.8-33.2-43.8-63.7
		c-0.2-97.2,0.7-194.4-0.4-291.6C-1,30.9,32.9-0.1,70,0C353.7,0.9,637.4,0.5,921,0.5z M918,418.1c121.2,0,242.4,0,363.5,0
		c159.8,0,319.6-0.9,479.4,0.6c43.3,0.4,68.4-28,66.1-65.1c-1.9-30.3-0.4-60.8-0.4-91.2c0-64.8,0.2-129.6-0.1-194.3
		c-0.2-30.7-17.2-50.7-47.3-56.4c-7.7-1.5-15.7-2.3-23.6-2.3C1269.4,9.3,783.2,9.3,296.9,9.3c-74.5,0-149,0.2-223.5,0.1
		c-21.1,0-39,6.4-52.1,23.4c-9.6,12.5-12.7,27-12.7,42.5c0.1,45,0,89.9,0,134.9c0,48.3,0,96.5,0,144.8c0,24.8,9.4,44.4,31.5,57.4
		c11.1,6.5,23,5.6,34.8,5.6C356,418.1,637,418.1,918,418.1z"/>
	<path class="st1" d="M918,418.1c-281,0-562,0-842.9,0c-11.9,0-23.7,0.9-34.8-5.6C18.1,399.4,8.7,379.8,8.7,355
		c-0.1-48.3,0-96.5,0-144.8c0-45,0-89.9,0-134.9c0-15.5,3.1-30,12.7-42.5c13.1-17,31-23.5,52.1-23.4c74.5,0.1,149-0.1,223.5-0.1
		c486.2,0,972.5,0,1458.7,0.1c7.9,0,15.8,0.8,23.6,2.3c30.1,5.8,47.1,25.7,47.3,56.4c0.3,64.8,0.1,129.5,0.1,194.3
		c0,30.4-1.5,60.9,0.4,91.2c2.3,37.2-22.8,65.6-66.1,65.1c-159.8-1.5-319.6-0.6-479.4-0.6C1160.3,418.1,1039.2,418.1,918,418.1z
		 M917.8,406.4c191.8,0,383.6,0,575.3,0c90.6,0,181.1-0.8,271.7,0.4c30.9,0.4,51.9-20.7,50.4-49.8c-1.5-29.7-0.3-59.5-0.3-89.2
		c0-66.1-0.2-132.2,0.1-198.3c0.1-19.7-7.8-35.1-25.2-43.3c-9.6-4.5-21.7-5.2-32.7-5.2c-502.5-0.3-1005-0.3-1507.5-0.3
		c-57.9,0-115.8,0-173.7,0.1c-16.9,0-32.9,3.1-44.3,17.4c-9.1,11.4-11,24.9-11.1,38.7c-0.2,91.9-0.2,183.7,0,275.6
		c0,8.4,0.8,17.3,3.6,25.1c5.7,15.8,16.8,26.7,34.6,28.3c7.3,0.7,14.6,0.5,22,0.5C359.7,406.5,638.8,406.4,917.8,406.4z"/>
	<rect x="1463" y="149.8" class="st1" width="149.8" height="132.5"/>
	<path class="st0" d="M917.8,406.4c-279,0-558,0-837.1,0c-7.3,0-14.7,0.2-22-0.5c-17.9-1.6-28.9-12.5-34.6-28.3
		c-2.8-7.8-3.6-16.7-3.6-25.1c-0.2-91.9-0.2-183.7,0-275.6c0-13.8,2-27.3,11.1-38.7C43,23.9,58.9,20.9,75.8,20.9
		c57.9-0.1,115.8-0.1,173.7-0.1c502.5,0,1005,0,1507.5,0.3c11,0,23.1,0.7,32.7,5.2c17.4,8.2,25.3,23.6,25.2,43.3
		c-0.3,66.1-0.1,132.2-0.1,198.3c0,29.7-1.2,59.5,0.3,89.2c1.5,29.1-19.5,50.2-50.4,49.8c-90.5-1.2-181.1-0.4-271.7-0.4
		C1301.3,406.4,1109.6,406.4,917.8,406.4z M1513.8,217.5c8.3,10,38.9,53.5,49.1,58.2c11,5.1,25.9,1.9,39.2,2.2c1.1,0,1.9,0,3.3,0.1
		c0-39.9,0-82.1,0-123.2c-15.4,0-28.4-0.1-43.9,0c0,10.1,0,46.5,0.3,59.7c-4.3-4.8-32.1-37.9-41.9-50.3c-2.7-3.5-6.8-9.4-10.2-9.4
		c-14.3,0-25.8,0-41.7,0c0,40.8-0.1,82.4-0.1,123.3c15.8-0.5,30.7,1.4,44.8-1.4c0-20.4,0-39.5,0-58.5l0-1.6
		C1512.7,216.5,1513.8,217.5,1513.8,217.5z M398.2,289.4c0-50.5,0-99.7,0-149.2c-20,0-39,0-59.4,0c0,17,0,33.2,0,50.1
		c-18.9,0-36.4,0-55.3,0c0-17.1,0-33.3,0-50.2c-20.3,0-39.3,0-59,0c0,50,0,99.2,0,149.1c19.7,0,38.6,0,59.1,0c0-18.1,0-35.7,0-53.6
		c19.1,0,36.7,0,55.8,0c0,18.4,0,35.9,0,53.8C359.5,289.4,378,289.4,398.2,289.4z M399.1,60.2c-7.1,0-12.3,0-17.5,0
		c-34.6,0-69.2-0.1-103.8,0.1c-10.1,0.1-17.9-1.8-26.9-8.6c-20-15.2-37.5-15.2-56.9,2.7c-9.6,8.8-19.2,14.1-30.9,18.8
		c-10.9,4.3-20.9,11.3-30.3,18.5c-50.5,38.6-70,91.1-59.1,151.6c9.9,54.8,43.4,94.6,97.1,115.3c8.7,3.3,15.9,7.5,22.4,14.8
		c13.5,15.3,36.6,20.2,53,6.8c12-9.7,23.8-11.5,38-11.3c32.6,0.5,65.2,0.2,97.8,0.2c5.2,0,10.3,0,16.3,0c0-16.2,0-31,0-47.2
		c-7.3,0-13.8,0-20.3,0c-34.6,0-69.2-0.2-103.8,0.1c-8.3,0.1-15-1-20.8-8.2c-11.7-14.5-38.6-16.6-52.5-5.3c-8.4,6.9-15.2,6-23,1.3
		c-5.6-3.4-11.1-7.2-16.1-11.4c-28.9-24.2-41.2-55.5-38.3-92.7c3-39,22-67.7,56.5-86.8c7.2-4,12.6-4.9,19.5,1.1
		c13.6,11.8,41.7,10.8,54.1-4.6c6-7.4,12.9-7.9,21-7.8c36.6,0.1,73.2,0,109.8,0c4.5,0,8.9,0,12.7,0c1.1-2.8,2-4,2-5.1
		C399.1,89.3,399.1,76.1,399.1,60.2z M768.4,277.5c0-13.8,0-26.1,0-37.8c7-2.3,14.9-2.7,20.5,2.8c6.1,6.1,8.8,16.4,12.7,23.9
		c2,3.8,3.7,8.3,7.7,10.4c4.3,2.3,9.7,1.3,14.4,1.2c11.7-0.2,23.4,0,35.1,0c-8.3-15.6-18.1-30.6-27.3-45.7
		c13.2-7.6,24.8-19.2,24.8-35.3c0-14.4-6.3-27.3-18.6-35.2c-16.1-10.3-34.5-6.5-52.6-6.5c-21.4,0-42.7-1.2-64.1,0.3
		c0,41.4,0,81.3,0,121.7C736.5,277.5,750.9,277.5,768.4,277.5z M1627.5,277.6c26.8,0,52.7,1.8,78.3-0.5c26.7-2.4,50-13,57.4-42.4
		c2-8.1,2.6-16.7,2.8-25.1c0.7-22.6-17.7-45-39.6-50.4c-32.7-8-65.5-2.3-98.9-4C1627.5,196.5,1627.5,235.8,1627.5,277.6z
		 M568.4,278.1c30,0,61.4,2.6,90.9-3.4c19.2-3.9,35.2-15.2,42.8-33.6c7.3-17.8,7.2-40.9-2.7-57.8c-9.7-16.5-27.2-23.4-45.3-26.4
		c-13.6-2.2-27.7-1.8-41.5-1.8c-14.8,0-29.5,0-44.2,1.4C568.4,197.2,568.4,236.6,568.4,278.1z M940.6,154.8
		c-15.4-1.2-29.4-0.3-43.1,6.8c-44.8,23.3-37.4,88.8-3.7,106.9c31.6,16.9,62.7,17.4,94,0.2c37.4-20.6,41.3-83.8-2.9-107.1
		C971.1,154.4,956.4,153.7,940.6,154.8z M1026.1,238.7c2.5,15.8,3.5,18.6,12,25.8c19.6,16.4,42.7,20.1,67,16
		c14.1-2.4,28.6-5.1,39.3-16.6c16-17.2,14-37.7-5.6-50.3c-4.3-2.8-9.3-5-14.3-6.4c-10.7-3-21.7-5.3-32.5-8c-5.1-1.3-10.3-2.4-15-4.6
		c-4.4-2.1-4.1-9.1,0.2-11.4c9.1-4.9,17.7-3.6,26,2.2c3,2.2,6.4,5.3,9.7,5.5c12.4,0.7,24.9,0.3,37.7,0.3c-3.8-17-6.2-20.6-15.6-27.7
		c-25.1-10.2-63.7-13.3-94,1.1c-24.2,11.5-18.2,47.1,6.6,57.7c9.6,4.1,20.2,5.8,30.3,8.4c8.2,2.1,16.7,3.4,24.8,6.1
		c2.3,0.8,4.8,5.3,4.5,7.7c-0.3,2.3-4,5.7-6.4,5.9c-8.4,0.9-18.3,4.3-24.4-3.6c-6.4-8.2-14-8.4-22.7-8
		C1045.2,239,1036.6,238.7,1026.1,238.7z M1307.7,229.9c-10.7,0-21.7-0.6-32.4-0.2c-9.8,0.4-12.8,5.3-17.6,12.8
		c-8.4,13-30.3,9.6-39.2-1.3c-9.8-12-8.3-37.1,0.4-49.4c8.3-11.7,29.2-13.2,38.8-2.3c2.8,3.2,3.6,7.4,6.1,10.6
		c2.6,3.2,6.1,2.6,9.8,2.5c11.2-0.2,22.5,0,33.7,0c-1.5-32.9-30.3-45.4-60.2-47.9c-26.8-2.3-55.1,1.9-71.4,24.5
		c-14.1,19.6-15.8,46.8-4.2,68c14.3,26.2,48.4,37.6,76.9,34.5C1278,278.6,1306.5,262.2,1307.7,229.9z M1304.8,278
		c15.3,0,27.2,0.4,39.1-0.2c3.3-0.2,9.1-3,9.3-5c0.9-12.2,9.3-10.7,17.3-10.7c8,0,16,0.2,23.9-0.1c6.1-0.2,11.1,1.4,11.8,7.8
		c0.8,7.1,4.6,8.4,10.7,8.2c12.5-0.3,25-0.1,38.6-0.1c-1.5-5-2.1-8.1-3.3-11c-10.9-25.9-21.8-51.8-33-77.6
		c-4.9-11.3-10.3-22.4-15.5-33.6c-13.3-0.2-26.5-0.4-39.8-0.7c-4.9-0.1-8.1,0.8-10.4,6.4C1338.2,199.7,1322,237.4,1304.8,278z
		 M561,155.2c-16.3,0-29.6,0.4-42.8-0.2c-7.8-0.3-11.9,2.5-15.4,9.3c-5.1,9.7-11.4,18.7-18.7,30.3c-7.1-11.7-12.7-21-18.5-30.3
		c-2.7-4.4-4.9-9.4-11.7-9.3c-15.2,0.2-30.4,0.1-47.4,0.1c15.8,23,30.2,44.3,45,65.2c6,8.4,9.2,16.9,8.4,27.4
		c-0.8,9.7-0.2,19.4-0.2,29.3c16.9,0,31.8,0,47.7,0c0-10.1,0.7-19.3-0.2-28.4c-1-11.2,2.4-20.3,8.9-29.2
		C530.8,199.2,544.8,178.5,561,155.2z"/>
	<path class="st1" d="M398.2,289.4c-20.2,0-38.7,0-58.8,0c0-17.9,0-35.4,0-53.8c-19.1,0-36.7,0-55.8,0c0,18,0,35.5,0,53.6
		c-20.5,0-39.4,0-59.1,0c0-50,0-99.2,0-149.1c19.8,0,38.7,0,59,0c0,16.8,0,33.1,0,50.2c18.9,0,36.4,0,55.3,0c0-16.8,0-33.1,0-50.1
		c20.4,0,39.4,0,59.4,0C398.2,189.7,398.2,238.9,398.2,289.4z"/>
	<path class="st1" d="M399.1,60.2c0,15.9,0,29.1-0.1,42.3c0,1.2,0.1,2.1,0.1,5.1c-3.8,0-10.3,0-14.8,0c-36.6,0-73.2,0.1-109.8,0
		c-8.2,0-15,0.4-21,7.8c-12.4,15.4-40.5,16.4-54.1,4.6c-6.9-6-12.3-5.1-19.5-1.1c-34.4,19-53.5,47.8-56.5,86.8
		c-2.8,37.2,9.4,68.4,38.3,92.7c5,4.2,10.5,8,16.1,11.4c7.8,4.7,14.6,5.6,23-1.3c13.9-11.3,40.7-9.2,52.5,5.3
		c5.8,7.1,12.5,8.2,20.8,8.2c34.6-0.3,69.2-0.1,103.8-0.1c6.5,0,13,0,20.3,0c0,16.2,0,31,0,47.2c-6,0-11.2,0-16.3,0
		c-32.6,0-65.2,0.3-97.8-0.2c-14.1-0.2-26,1.6-38,11.3c-16.4,13.3-39.5,8.5-53-6.8c-6.4-7.3-13.7-11.5-22.4-14.8
		c-53.7-20.6-87.2-60.5-97.1-115.3c-10.9-60.5,8.6-113,59.1-151.6c9.4-7.2,19.5-14.1,30.3-18.5c11.6-4.7,21.3-10,30.9-18.8
		c19.3-17.9,36.9-17.9,56.9-2.7c9,6.8,16.8,8.7,26.9,8.6c34.6-0.2,69.2-0.1,103.8-0.1C386.8,60.2,392,60.2,399.1,60.2z M178.2,79.3
		C119.8,99,74.8,155.7,83.8,235.8c5.3,47.3,44.6,101.9,96.4,112.8c0-2.8-0.4-5.3,0.1-7.7c0.9-5.1,4.7-11.3,2.9-14.7
		c-2.3-4.3-9.1-6.3-14-9.3c-69.1-42.4-77-136.4-19.7-188.9c10.4-9.5,22.9-16.8,34.4-25.1C182.1,95.3,180.3,87.9,178.2,79.3z
		 M387.1,331.2c-40.9,0-79.8,0-119.1,0c0,9,0,17.1,0,25.4c40.2,0,79.6,0,119.1,0C387.1,347.7,387.1,340,387.1,331.2z M225.3,116
		c17.5-0.2,30.4-13.6,30.5-31.4c0-18-14.7-33-32.4-32.3c-15.6,0.6-33.2,16.1-31.9,33.3C192.8,103.7,206,116.2,225.3,116z
		 M223.6,313.4c-18,0-31.7,13-32,30.3c-0.2,16.4,16.7,34.4,32.5,33.3c17-1.2,31.4-13.5,31.5-33.6C255.8,326,241.9,313.4,223.6,313.4
		z M387,72.2c-40.3,0-78.7,0-117.1,0.1c-0.5,0-1.1,0.7-1.6,1.2c-0.4,0.4-0.8,0.9-1.4,1.6c0.5,6.8,0.9,13.7,1.4,20.4
		c40.3,0,79.2,0,118.7,0C387,87.6,387,80.6,387,72.2z"/>
	<path class="st1" d="M768.4,277.5c-17.4,0-31.8,0-47.3,0c0-40.4,0-80.3,0-121.7c21.3-1.5,42.7-0.3,64.1-0.3
		c18.1,0,36.5-3.8,52.6,6.5c12.3,7.9,18.5,20.8,18.6,35.2c0,16.1-11.5,27.7-24.8,35.3c9.2,15.1,18.9,30.1,27.3,45.7
		c-11.7,0-23.4-0.2-35.1,0c-4.6,0.1-10.1,1.1-14.4-1.2c-4-2.2-5.7-6.6-7.7-10.4c-3.9-7.5-6.6-17.9-12.7-23.9
		c-5.6-5.5-13.5-5.1-20.5-2.8C768.4,251.4,768.4,263.7,768.4,277.5z M768.5,210.9c9.9,0,20.7,1.4,30.4-0.7c6.3-1.4,8.6-5.6,8.8-11.7
		c0.8-20.2-26.1-14.9-39.2-14.9C768.5,192.9,768.5,200.6,768.5,210.9z"/>
	<path class="st1" d="M1627.5,277.2c0-41.8,0-81.2,0-122.4c33.2,0,83.6-1.2,98.9,4c21.3,7.2,40.3,27.8,39.6,50.4
		c-0.3,8.4-0.8,17-2.8,25.1c-7.4,29.5-30.7,40-57.4,42.4C1680.3,279,1654.4,277.2,1627.5,277.2z M1675.1,246.7
		c16.1,0,31.5,2.9,39.5-14c6.3-13.5,7-28-1.9-39.4c-9.2-11.8-23.6-11.8-37.5-8.6C1675.1,205.4,1675.1,225,1675.1,246.7z"/>
	<path class="st1" d="M568.4,278.1c0-41.5,0-80.9,0-121.6c14.7-1.4,29.4-1.4,44.2-1.4c13.8,0,27.8-0.4,41.5,1.8
		c18.2,3,35.6,9.9,45.3,26.4c9.9,16.9,10,40,2.7,57.8c-7.5,18.4-23.6,29.7-42.8,33.6C629.7,280.6,598.4,278.1,568.4,278.1z
		 M616.4,246.9c34,1.1,44.1-7.5,42.9-35.2c-1-22-13-29.6-42.9-26.5C616.4,205.2,616.4,225.4,616.4,246.9z"/>
	<path class="st1" d="M940.6,154.8c15.8-1.1,30.5-0.4,44.2,6.8c44.3,23.3,40.4,86.5,2.9,107.1c-31.3,17.3-62.4,16.8-94-0.2
		c-33.7-18.1-41.1-83.6,3.7-106.9C911.2,154.5,925.2,153.6,940.6,154.8z M943.2,182.6c-14.2-0.3-21.2,3.4-25.7,15.1
		c-5.1,13.3-4.9,26.9,1.6,40c4.6,9.4,13.2,12.6,22.8,12.7c10,0.1,18.5-4.1,22.8-13.1c6-12.8,7.6-26.5,1.2-39.7
		C961.3,188.3,954.1,181.6,943.2,182.6z"/>
	<path class="st1" d="M1026.1,238.7c10.5,0,19.1,0.3,27.7-0.1c8.8-0.4,16.4-0.2,22.7,8c6.1,7.9,16,4.5,24.4,3.6
		c2.5-0.3,6.2-3.6,6.4-5.9c0.3-2.5-2.2-7-4.5-7.7c-8-2.7-16.5-4-24.8-6.1c-10.2-2.6-20.8-4.3-30.3-8.4
		c-24.8-10.6-30.8-46.2-6.6-57.7c30.7-14.6,64.4-11.3,94-1.1c9.4,7.1,11.8,10.7,15.6,27.7c-12.8,0-25.3,0.4-37.7-0.3
		c-3.3-0.2-6.6-3.3-9.7-5.5c-8.3-5.9-16.9-7.2-26-2.2c-4.3,2.3-4.6,9.3-0.2,11.4c4.7,2.2,9.9,3.3,15,4.6c10.8,2.7,21.8,5,32.5,8
		c5,1.4,9.9,3.6,14.3,6.4c19.6,12.6,21.5,33.2,5.6,50.3c-10.7,11.5-25.2,14.3-39.3,16.6c-24.3,4.1-47.5,0.4-67-16
		C1029.6,257.4,1028.6,254.5,1026.1,238.7z"/>
	<path class="st1" d="M1307.7,229.9c-1.1,32.3-29.7,48.7-59.3,51.9c-28.5,3.1-62.6-8.3-76.9-34.5c-11.6-21.2-9.9-48.4,4.2-68
		c16.3-22.6,44.6-26.8,71.4-24.5c29.9,2.5,58.7,15.1,60.2,47.9c-11.2,0-22.5-0.2-33.7,0c-3.7,0.1-7.3,0.6-9.8-2.5
		c-2.6-3.2-3.3-7.4-6.1-10.6c-9.6-10.8-30.6-9.4-38.8,2.3c-8.7,12.3-10.1,37.4-0.4,49.4c8.9,10.9,30.8,14.2,39.2,1.3
		c4.9-7.5,7.8-12.4,17.6-12.8C1285.9,229.3,1296.9,229.9,1307.7,229.9z"/>
	<path class="st1" d="M1419.4,189.4c11.1,25.8,22.1,51.7,33,77.6c1.2,2.9,1.8,6,3.3,11c-13.7,0-26.1-0.2-38.6,0.1
		c-6.1,0.1-9.9-1.1-10.7-8.2c-0.7-6.4-5.7-8-11.8-7.8c-8,0.3-16,0.1-23.9,0.1c-8,0-16.4-1.5-17.3,10.7c-0.1,1.9-6,4.8-9.3,5
		c-11.9,0.6-23.8,0.2-39.1,0.2c17.1-40.6,33.3-78.4,48.9-116.4c2.3-5.6,5.4-6.9,10.3-6.8c13.3,0.3,26.4-0.2,39.7,0 M1395.2,237.4
		c-5-13.8-9.4-25.9-14.9-41c-5.2,15.7-9.3,27.8-13.7,41C1376.1,237.4,1384.4,237.4,1395.2,237.4z"/>
	<path class="st1" d="M561,155.2c-16.2,23.3-30.1,44-44.8,64.3c-6.5,9-9.9,18-8.9,29.2c0.8,9.1,0.2,18.3,0.2,28.4
		c-16,0-30.9,0-47.7,0c0-9.9-0.6-19.7,0.2-29.3c0.8-10.5-2.4-19-8.4-27.4c-14.8-20.9-29.2-42.1-45-65.2c17,0,32.2,0.2,47.4-0.1
		c6.8-0.1,8.9,4.9,11.7,9.3c5.8,9.3,11.4,18.6,18.5,30.3c7.2-11.6,13.6-20.6,18.7-30.3c3.5-6.8,7.7-9.6,15.4-9.3
		C531.4,155.6,544.7,155.2,561,155.2z"/>
	<path class="st2" d="M178.2,79.3c2.1,8.5,3.9,16,5.7,23.5c-11.5,8.3-24,15.6-34.4,25.1c-57.3,52.4-49.4,146.4,19.7,188.9
		c4.9,3,11.6,5,14,9.3c1.8,3.4-2,9.7-2.9,14.7c-0.4,2.4-0.1,5-0.1,7.7c-51.8-10.9-91.2-65.4-96.4-112.8
		C74.8,155.7,119.8,99,178.2,79.3z"/>
	<path class="st2" d="M387.1,331.2c0,8.8,0,16.5,0,25.4c-39.5,0-78.9,0-119.1,0c0-8.2,0-16.3,0-25.4
		C307.3,331.2,346.2,331.2,387.1,331.2z"/>
	<path class="st2" d="M225.3,116c-19.3,0.2-32.5-12.3-33.9-30.5c-1.3-17.2,16.4-32.7,31.9-33.3c17.7-0.7,32.4,14.3,32.4,32.3
		C255.8,102.4,242.8,115.8,225.3,116z"/>
	<path class="st2" d="M223.6,313.4c18.2,0,32.2,12.7,32.1,30c-0.1,20-14.5,32.4-31.5,33.6c-15.9,1.1-32.8-16.9-32.5-33.3
		C191.9,326.4,205.6,313.4,223.6,313.4z"/>
	<path class="st2" d="M387,72.2c0,8.4,0,15.4,0,23.2c-39.6,0-78.4,0-118.7,0c-0.5-6.7-0.9-13.7-1.4-20.4c0.6-0.7,1-1.2,1.4-1.6
		c0.5-0.4,1-1.2,1.6-1.2C308.3,72.2,346.7,72.2,387,72.2z"/>
	<path class="st0" d="M768.5,210.9c0-10.3,0-18,0-27.4c13.1,0,40-5.2,39.2,14.9c-0.2,6.2-2.5,10.4-8.8,11.7
		C789.3,212.3,778.4,210.9,768.5,210.9z"/>
	<path class="st0" d="M1675.1,247.1c0-21.6,0-41.3,0-62.1c13.9-3.1,28.4-3.2,37.5,8.6c8.9,11.5,8.2,26,1.9,39.4
		C1706.7,250.1,1691.3,247.1,1675.1,247.1z"/>
	<path class="st0" d="M616.4,246.9c0-21.5,0-41.6,0-61.7c29.9-3.1,41.9,4.6,42.9,26.5C660.5,239.3,650.4,248,616.4,246.9z"/>
	<path class="st0" d="M943.2,182.6c10.9-1,18.1,5.7,22.7,15c6.5,13.2,4.8,26.9-1.2,39.7c-4.2,9-12.8,13.2-22.8,13.1
		c-9.7-0.1-18.2-3.3-22.8-12.7c-6.4-13.1-6.7-26.6-1.6-40C922,186,929,182.3,943.2,182.6z"/>
	<path class="st0" d="M1395.2,237.4c-10.8,0-19.1,0-28.6,0c4.4-13.2,8.5-25.3,13.7-41C1385.7,211.5,1390.1,223.6,1395.2,237.4z"/>
</g>
</svg>
